PathFileType	4	(X/Y/Z)	C:/Users/opensim2020/Desktop/walking_exp_matlab/subject02_walking05_straight_03.trc	
DataRate	CameraRate	NumFrames	NumMarkers	Units	OrigDataRate	OrigDataStartFrame	OrigNumFrames	
100.00	100.00	4	42	mm	100.00	2189	224	
Frame#	Time	LFHD			RFHD			LBHD			RBHD			C7			T10			CLAV			STRN			RBAK			LSHO			LUPA			LELB			LFRM			LWRA			LWRB			LFIN			RSHO			RUPA			RELB			RFRM			RWRA			RWRB			RFIN			LASI			RASI			LPSI			RPSI			LTHI			LKNE			LTIB			LANK			LHEE			LTOE			RTHI			RKNE			RTIB			RANK			RHEE			RTOE			*39			*40			*41			
		X1	Y1	Z1	X2	Y2	Z2	X3	Y3	Z3	X4	Y4	Z4	X5	Y5	Z5	X6	Y6	Z6	X7	Y7	Z7	X8	Y8	Z8	X9	Y9	Z9	X10	Y10	Z10	X11	Y11	Z11	X12	Y12	Z12	X13	Y13	Z13	X14	Y14	Z14	X15	Y15	Z15	X16	Y16	Z16	X17	Y17	Z17	X18	Y18	Z18	X19	Y19	Z19	X20	Y20	Z20	X21	Y21	Z21	X22	Y22	Z22	X23	Y23	Z23	X24	Y24	Z24	X25	Y25	Z25	X26	Y26	Z26	X27	Y27	Z27	X28	Y28	Z28	X29	Y29	Z29	X30	Y30	Z30	X31	Y31	Z31	X32	Y32	Z32	X33	Y33	Z33	X34	Y34	Z34	X35	Y35	Z35	X36	Y36	Z36	X37	Y37	Z37	X38	Y38	Z38	X39	Y39	Z39	X40	Y40	Z40	X41	Y41	Z41	X42	Y42	Z42	

113	1.120	-1024.06311	-11.54868	1745.83154	-883.22260	-32.88110	1719.16284	-1057.04053	-134.40677	1664.01038	-920.06866	-167.37083	1635.55444	-983.85077	-194.53531	1520.23181	-972.29279	-241.55701	1244.12085	-1002.47083	-54.25323	1455.14429	-1000.45190	2.34726	1284.93518	-917.75214	-244.14449	1343.50964	-1167.54321	-131.36755	1499.84680	-1252.69312	-138.39168	1300.46179	-1268.31287	-130.87709	1159.45117	-1285.51038	-98.85770	1030.59705	-1258.27417	-17.87218	918.23602	-1289.13843	-65.18004	911.94324	-1293.27673	-34.55121	852.44617	-801.89929	-106.63672	1483.56104	-715.96814	-136.09273	1295.37793	-693.48511	-125.06102	1150.71521	-668.60339	-97.37228	1035.18640	-679.02643	-46.39594	908.63995	-649.83160	-95.30669	906.03882	-642.14478	-58.09937	843.93872	-1126.21692	-32.00097	978.95294	-874.55786	7.89253	981.83545	-1015.78040	-225.51071	1024.70740	-901.29395	-213.42912	1031.77295	-1182.43860	-82.27390	664.10699	-1168.61914	-92.82389	481.52509	-1143.19617	-245.33572	382.03265	-1102.01929	-386.50192	214.99651	-1039.59351	-412.31805	210.65114	-1149.47302	-322.33371	79.85574	-799.10675	-18.60045	676.65369	-847.76160	-1.32967	468.34564	-841.01038	-32.59202	281.07544	-881.39600	-52.49897	90.58513	-936.58545	-91.23859	37.49523	-877.77716	100.01840	38.86006	-948.03156	-130.28409	1800.20276	-3360.38135	2845.11792	1033.82031			 
114	1.130	-1023.52551	-1.25594	1747.42468	-882.69281	-22.90826	1720.68396	-1056.68616	-124.09632	1665.79382	-919.47467	-156.60776	1636.82214	-983.31116	-184.37886	1521.83289	-971.00952	-231.87094	1246.02698	-1002.34741	-44.17475	1456.55151	-1000.28546	11.86837	1286.18884	-916.56952	-234.22794	1345.68982	-1167.21924	-121.91170	1501.47668	-1251.98877	-131.09541	1301.88623	-1267.82178	-124.99683	1161.06848	-1285.19775	-95.00847	1031.64465	-1258.74011	-15.40586	918.11548	-1289.34668	-63.22569	912.69513	-1293.56116	-33.61053	852.42529	-801.65967	-95.81245	1485.59290	-714.85901	-124.17668	1297.25269	-692.15338	-112.08726	1152.76538	-667.17212	-83.11287	1037.45691	-677.53107	-31.32082	911.64795	-648.20734	-80.45209	908.44690	-640.25134	-42.44084	847.13623	-1126.32996	-23.52905	981.64954	-873.60675	17.22439	983.03955	-1013.96271	-216.68106	1026.44995	-899.88538	-204.11032	1033.32434	-1182.28931	-66.89957	666.74005	-1168.21179	-72.96575	483.97119	-1142.00122	-223.50784	382.36795	-1101.42810	-361.47577	212.38029	-1039.22766	-388.06357	207.36935	-1148.94592	-293.17023	79.90598	-798.68774	-13.08763	676.65497	-847.23431	0.62497	467.93835	-840.99988	-32.06076	281.16687	-881.67468	-52.51561	90.62915	-936.70190	-91.28195	37.37776	-877.71637	99.99842	38.85325	-947.58826	-120.10297	1801.75793	-3360.19629	2845.22925	1033.91052			 
115	1.140	-1023.18237	8.92878	1748.91956	-882.39911	-12.76213	1722.10107	-1056.46582	-113.81860	1667.25818	-919.20917	-146.53194	1638.22119	-982.70093	-174.16518	1523.61316	-969.64496	-222.26968	1247.86926	-1002.25073	-34.10773	1457.83215	-1000.10626	21.39083	1287.32117	-915.38177	-224.27478	1347.70386	-1166.64783	-112.55830	1502.81592	-1251.77856	-123.80048	1303.38452	-1267.32507	-119.24769	1162.50952	-1284.64063	-91.15543	1032.83679	-1258.75049	-13.39002	918.13477	-1289.50464	-61.32544	913.30078	-1293.82593	-32.68261	852.55469	-801.39496	-84.92093	1487.47559	-713.69556	-112.27570	1299.45435	-690.80438	-99.21835	1154.97302	-666.00500	-69.31570	1039.85486	-676.33105	-16.47768	914.72076	-646.83807	-65.62601	910.84454	-638.60419	-26.67631	850.34558	-1126.04468	-14.89392	984.14587	-872.87451	25.93221	984.30652	-1012.43506	-206.86591	1027.89868	-898.65332	-194.81636	1034.72168	-1182.16223	-51.90519	669.39606	-1167.83057	-53.42941	486.46466	-1141.30945	-201.71593	381.99951	-1101.15625	-336.09805	208.92331	-1039.15955	-362.94464	202.87860	-1148.34570	-262.89252	79.11283	-798.53796	-8.25889	676.55280	-847.01642	3.12335	467.95117	-841.25507	-31.91478	281.35687	-881.95227	-52.51274	90.75932	-936.86853	-91.32381	37.41416	-877.63965	100.01098	38.78326	-947.31116	-109.92809	1803.13416						 
116	1.150	-1022.97229	19.08983	1750.33264	-882.18958	-3.02447	1723.62451	-1056.34460	-103.57121	1668.54895	-919.20508	-136.32950	1639.50671	-982.22583	-164.02789	1525.14795	-968.25568	-212.73718	1249.63123	-1002.12140	-24.12891	1458.99609	-999.87329	30.92352	1288.34314	-914.25903	-214.40598	1349.70837	-1166.12537	-102.97975	1503.82507	-1250.55383	-116.43545	1304.45190	-1266.88293	-113.58987	1163.77856	-1284.63037	-87.55833	1033.89514	-1259.22009	-11.20598	918.03424	-1289.68164	-59.28977	913.92047	-1294.34717	-31.50835	852.79297	-801.25305	-74.13737	1489.52771	-712.73639	-100.31080	1301.53540	-689.56726	-86.24381	1157.17773	-664.79431	-55.04427	1042.40991	-675.61279	-2.28081	917.54486	-645.67651	-50.74431	913.29956	-637.16968	-10.91511	853.59729	-1125.47754	-5.83014	986.64783	-871.86084	34.65984	985.37061	-1011.21167	-198.51617	1029.62012	-897.65027	-185.74767	1036.03113	-1181.97937	-37.28763	672.06134	-1167.32007	-34.23726	489.01004	-1141.17334	-179.85201	380.86102	-1101.14539	-309.68631	204.11778	-1039.40320	-337.61954	197.51375	-1147.81873	-231.49124	77.54314	-798.35205	-4.30422	676.53680	-846.94427	5.65168	467.73322	-841.09375	-31.29068	281.52017	-882.23828	-52.52992	90.85847	-936.98700	-91.25349	37.56997	-877.58398	100.02900	38.77742	-947.27618	-99.94390	1804.31775	-3356.87036	2845.88574	1033.92151			 
